<svg width="32" height="34" viewBox="0 0 32 34" fill="none" xmlns="http://www.w3.org/2000/svg">
<path d="M27 4.73828H11C10.6022 4.73828 10.2206 4.89632 9.93934 5.17762C9.65804 5.45893 9.5 5.84046 9.5 6.23828V10.7383H5C4.60218 10.7383 4.22064 10.8963 3.93934 11.1776C3.65804 11.4589 3.5 11.8405 3.5 12.2383V28.2383C3.5 28.6361 3.65804 29.0176 3.93934 29.2989C4.22064 29.5802 4.60218 29.7383 5 29.7383H21C21.3978 29.7383 21.7794 29.5802 22.0607 29.2989C22.342 29.0176 22.5 28.6361 22.5 28.2383V23.7383H27C27.3978 23.7383 27.7794 23.5802 28.0607 23.2989C28.342 23.0176 28.5 22.6361 28.5 22.2383V6.23828C28.5 5.84046 28.342 5.45893 28.0607 5.17762C27.7794 4.89632 27.3978 4.73828 27 4.73828ZM19.5 26.7383H6.5V13.7383H19.5V26.7383ZM25.5 20.7383H22.5V12.2383C22.5 11.8405 22.342 11.4589 22.0607 11.1776C21.7794 10.8963 21.3978 10.7383 21 10.7383H12.5V7.73828H25.5V20.7383Z" fill="#F8F7FF"/>
</svg>
