<svg width="25" height="26" viewBox="0 0 25 26" fill="none" xmlns="http://www.w3.org/2000/svg">
<path d="M13.1048 18.2947C13.2097 18.3992 13.2929 18.5234 13.3497 18.6602C13.4065 18.7969 13.4357 18.9435 13.4357 19.0916C13.4357 19.2397 13.4065 19.3863 13.3497 19.523C13.2929 19.6598 13.2097 19.784 13.1048 19.8885L12.548 20.4453C11.4927 21.5006 10.0615 22.0934 8.56919 22.0934C7.07687 22.0934 5.64567 21.5006 4.59044 20.4453C3.53521 19.3901 2.94238 17.9589 2.94238 16.4666C2.94238 14.9743 3.53521 13.5431 4.59044 12.4878L6.85169 10.2275C7.86558 9.21114 9.22973 8.62087 10.6647 8.57765C12.0997 8.53442 13.4969 9.04151 14.5702 9.99504C14.681 10.0935 14.7713 10.2129 14.836 10.3463C14.9006 10.4797 14.9384 10.6245 14.9471 10.7725C14.9558 10.9205 14.9353 11.0687 14.8867 11.2088C14.8381 11.3489 14.7624 11.478 14.6639 11.5888C14.5654 11.6996 14.4461 11.7899 14.3127 11.8546C14.1793 11.9193 14.0344 11.957 13.8864 11.9657C13.7385 11.9744 13.5902 11.9539 13.4501 11.9053C13.3101 11.8567 13.181 11.781 13.0702 11.6825C12.4266 11.111 11.5889 10.8069 10.7286 10.8325C9.86818 10.8581 9.05012 11.2115 8.44169 11.8203L6.18231 14.0778C5.54927 14.7109 5.19364 15.5695 5.19364 16.4647C5.19364 17.36 5.54927 18.2186 6.18231 18.8516C6.81535 19.4846 7.67393 19.8403 8.56919 19.8403C9.46444 19.8403 10.3231 19.4846 10.9561 18.8516L11.513 18.2947C11.6174 18.1901 11.7415 18.1071 11.8781 18.0505C12.0147 17.9939 12.1611 17.9648 12.3089 17.9648C12.4567 17.9648 12.6031 17.9939 12.7397 18.0505C12.8763 18.1071 13.0004 18.1901 13.1048 18.2947ZM20.0498 4.98222C18.9938 3.92862 17.5629 3.33691 16.0711 3.33691C14.5793 3.33691 13.1484 3.92862 12.0923 4.98222L11.5355 5.5391C11.3241 5.75044 11.2054 6.03709 11.2054 6.33597C11.2054 6.63486 11.3241 6.9215 11.5355 7.13285C11.7468 7.34419 12.0335 7.46292 12.3323 7.46292C12.6312 7.46292 12.9179 7.34419 13.1292 7.13285L13.6861 6.57597C14.3191 5.94293 15.1777 5.5873 16.073 5.5873C16.9682 5.5873 17.8268 5.94293 18.4598 6.57597C19.0929 7.20901 19.4485 8.0676 19.4485 8.96285C19.4485 9.8581 19.0929 10.7167 18.4598 11.3497L16.1995 13.611C15.5906 14.2196 14.772 14.5724 13.9115 14.5973C13.0509 14.6223 12.2133 14.3174 11.5702 13.745C11.4594 13.6465 11.3302 13.5708 11.1902 13.5222C11.0501 13.4737 10.9019 13.4531 10.7539 13.4618C10.6059 13.4705 10.461 13.5083 10.3276 13.573C10.1942 13.6377 10.0749 13.728 9.97637 13.8388C9.87788 13.9496 9.80218 14.0787 9.75359 14.2188C9.705 14.3588 9.68447 14.5071 9.69317 14.6551C9.70188 14.8031 9.73965 14.9479 9.80432 15.0813C9.869 15.2147 9.95932 15.334 10.0701 15.4325C11.1426 16.3858 12.5389 16.8933 13.9732 16.8509C15.4075 16.8086 16.7714 16.2197 17.7858 15.2047L20.047 12.9444C21.1019 11.8886 21.6946 10.4573 21.6951 8.96484C21.6957 7.47236 21.1039 6.04068 20.0498 4.9841V4.98222Z" fill="#fff"/>
</svg>
