<svg width="25" height="26" viewBox="0 0 25 26" fill="none" xmlns="http://www.w3.org/2000/svg">
<path d="M6.51001 6.1958C5.82001 6.1958 5.26001 6.7558 5.26001 7.4458V18.9458C5.26001 19.6358 5.82001 20.1958 6.51001 20.1958H18.01C18.7 20.1958 19.26 19.6358 19.26 18.9458V15.1958C19.26 14.9305 19.3654 14.6762 19.5529 14.4887C19.7404 14.3011 19.9948 14.1958 20.26 14.1958C20.5252 14.1958 20.7796 14.3011 20.9671 14.4887C21.1546 14.6762 21.26 14.9305 21.26 15.1958V18.9458C21.26 19.8077 20.9176 20.6344 20.3081 21.2439C19.6986 21.8533 18.872 22.1958 18.01 22.1958H6.51001C5.64806 22.1958 4.82141 21.8533 4.21191 21.2439C3.60242 20.6344 3.26001 19.8077 3.26001 18.9458V7.4458C3.26001 6.58384 3.60242 5.75719 4.21191 5.1477C4.82141 4.53821 5.64806 4.1958 6.51001 4.1958H10.26C10.5252 4.1958 10.7796 4.30115 10.9671 4.48869C11.1546 4.67623 11.26 4.93058 11.26 5.1958C11.26 5.46101 11.1546 5.71537 10.9671 5.9029C10.7796 6.09044 10.5252 6.1958 10.26 6.1958H6.51001ZM14.26 6.1958C13.9948 6.1958 13.7404 6.09044 13.5529 5.9029C13.3654 5.71537 13.26 5.46101 13.26 5.1958C13.26 4.93058 13.3654 4.67623 13.5529 4.48869C13.7404 4.30115 13.9948 4.1958 14.26 4.1958H20.26C20.5252 4.1958 20.7796 4.30115 20.9671 4.48869C21.1546 4.67623 21.26 4.93058 21.26 5.1958V11.1958C21.26 11.461 21.1546 11.7153 20.9671 11.9029C20.7796 12.0904 20.5252 12.1958 20.26 12.1958C19.9948 12.1958 19.7404 12.0904 19.5529 11.9029C19.3654 11.7153 19.26 11.461 19.26 11.1958V7.6098L14.967 11.9028C14.7784 12.0849 14.5258 12.1857 14.2636 12.1834C14.0014 12.1812 13.7506 12.076 13.5652 11.8906C13.3798 11.7052 13.2746 11.4544 13.2723 11.1922C13.27 10.93 13.3708 10.6774 13.553 10.4888L17.846 6.1958H14.26Z" fill="#F8F7FF"/>
</svg>
