<svg width="25" height="26" viewBox="0 0 25 26" fill="none" xmlns="http://www.w3.org/2000/svg">
<path d="M6.55005 5.94702C5.86005 5.94702 5.30005 6.50702 5.30005 7.19702V18.697C5.30005 19.387 5.86005 19.947 6.55005 19.947H18.05C18.74 19.947 19.3 19.387 19.3 18.697V14.947C19.3 14.6818 19.4054 14.4275 19.5929 14.2399C19.7804 14.0524 20.0348 13.947 20.3 13.947C20.5652 13.947 20.8196 14.0524 21.0071 14.2399C21.1946 14.4275 21.3 14.6818 21.3 14.947V18.697C21.3 19.559 20.9576 20.3856 20.3481 20.9951C19.7386 21.6046 18.912 21.947 18.05 21.947H6.55005C5.6881 21.947 4.86145 21.6046 4.25195 20.9951C3.64246 20.3856 3.30005 19.559 3.30005 18.697V7.19702C3.30005 6.33507 3.64246 5.50842 4.25195 4.89892C4.86145 4.28943 5.6881 3.94702 6.55005 3.94702H10.3C10.5652 3.94702 10.8196 4.05238 11.0071 4.23991C11.1946 4.42745 11.3 4.68181 11.3 4.94702C11.3 5.21224 11.1946 5.46659 11.0071 5.65413C10.8196 5.84166 10.5652 5.94702 10.3 5.94702H6.55005ZM14.3 5.94702C14.0348 5.94702 13.7804 5.84166 13.5929 5.65413C13.4054 5.46659 13.3 5.21224 13.3 4.94702C13.3 4.68181 13.4054 4.42745 13.5929 4.23991C13.7804 4.05238 14.0348 3.94702 14.3 3.94702H20.3C20.5652 3.94702 20.8196 4.05238 21.0071 4.23991C21.1946 4.42745 21.3 4.68181 21.3 4.94702V10.947C21.3 11.2122 21.1946 11.4666 21.0071 11.6541C20.8196 11.8417 20.5652 11.947 20.3 11.947C20.0348 11.947 19.7804 11.8417 19.5929 11.6541C19.4054 11.4666 19.3 11.2122 19.3 10.947V7.36102L15.007 11.654C14.8184 11.8362 14.5658 11.937 14.3036 11.9347C14.0414 11.9324 13.7906 11.8272 13.6052 11.6418C13.4198 11.4564 13.3146 11.2056 13.3123 10.9434C13.31 10.6812 13.4108 10.4286 13.593 10.24L17.886 5.94702H14.3Z" fill="#050505"/>
</svg>
